<?xml version="1.0" encoding="utf-8"?>
<!-- Generator: Adobe Illustrator 27.5.0, SVG Export Plug-In . SVG Version: 6.00 Build 0)  -->
<svg version="1.1" xmlns="http://www.w3.org/2000/svg" xmlns:xlink="http://www.w3.org/1999/xlink" x="0px" y="0px"
	 viewBox="0 0 750 500" style="enable-background:new 0 0 750 500;" xml:space="preserve">
<g id="BACKGROUND">
	<g>
		<rect style="fill:#160040;" width="750" height="500"/>
		<path style="opacity:0.3;fill:#351289;" d="M17.041,97.436c-6.315,5.425-12.732,11.244-14.09,18.051
			c-1.357,6.807,4.354,14.746,14.498,15.942c5.075,0.598,10.221-0.54,15.019-1.795C87.11,115.347,133.23,83.693,191.895,82.469
			c2.92-0.061,6.021-0.01,8.487,1.034c7.307,3.093,2.722,10.616-2.558,15.188C130.957,156.596,48.905,209.043,9.655,277.273
			c-3.338,5.802-5.402,13.721,2.451,17.067c3.068,1.307,6.918,1.465,10.554,1.339c25.443-0.883,46.161-13.231,65.455-24.322
			c26.487-15.227,54.463-29.301,83.691-42.105c24.758-10.846,51.148-20.964,80.35-24.285c-6.956,14.973-23.107,27.123-38.549,38.943
			c-56.025,42.885-108.339,87.924-156.598,134.819c-20.467,19.888-40.543,40.615-49.23,64.028c-2.12,5.713-2.958,12.719,3.756,16.54
			c8.395,4.778,21.232,0.828,30.05-3.6c31.087-15.61,55.775-36.053,81.541-55.497c71.021-53.595,152.545-100.998,241.844-140.622
			c29.167-12.942,59.829-25.246,93.956-30.536c4.588-0.711,9.747-1.234,13.732,0.44c8.508,3.574,3.728,12.329-2.044,17.819
			c-36.457,34.677-80.183,65.796-115.647,100.928s-62.932,75.855-60.865,118.18c0.479,9.809,4.269,21.231,17.691,25.263
			c8.438,2.535,18.26,1.291,27.186-0.34c54.159-9.894,101.634-32.165,142.062-58.148c40.428-25.983,74.728-55.825,111.017-84.395
			c50.639-39.868,106.688-78.85,133.111-128.031c3.244-6.038,5.523-13.655-1.351-18.142c-8.09-5.28-21.598-1.86-31.256,2.078
			c-64.74,26.396-116.126,64.725-171.08,99.616c-11.464,7.279-24.363,14.809-40.137,15.708
			c39.849-38.821,79.699-77.642,119.548-116.463c31.355-30.546,62.778-61.165,89.018-93.784
			c9.635-11.978,16.659-29.556-0.494-36.902c-13.591-5.821-31.244,0.169-44.731,6.096
			c-88.582,38.927-176.021,79.009-262.252,120.215c-26.266,12.551-52.932,25.386-83.54,32.298
			c-4.601,1.039-9.974,1.884-14.065,0.138c-6.545-2.793-4.581-9.436-1.456-14.179c41.731-63.347,148.079-101.054,183.004-166.206
			c1.935-3.61,3.408-8.068-0.428-10.924c-5.164-3.844-14.618-1.377-21.135,1.408c-88.225,37.694-157.92,95.202-255.316,120.975
			c42.606-34.476,85.212-68.952,127.818-103.428c8.163-6.605,16.577-13.543,19.402-21.891c2.825-8.349-1.871-18.5-13.74-21.762
			c-8.58-2.358-18.37-0.635-27.092,1.477C247.354,28.834,206.617,51.62,159.68,65.962c-14.559,4.448-36.719,6.123-42.054-3.944
			c-3.893-7.347,5.514-14.762,15.075-19.245c39.248-18.402,15.607-38.991-20.765-16.826C77.015,47.229,45.977,72.579,17.041,97.436z
			"/>
	</g>
</g>
<g id="OBJECTS">
	<g>
		<g>
			<path style="opacity:0.26;fill:#F43B86;" d="M59.729,85.285c42.687-24.71,86.448-51.334,133.568-65.332
				C256.249,1.252,323.086,1.801,388.752,2.631c88.305,1.116,181.02,3.624,257.458,47.852c26.362,15.253,50.903,36.4,61.877,64.811
				c7,18.12,8.02,37.911,8.961,57.313c1.378,28.395,2.747,56.995-1.277,85.137c-4.023,28.142-13.827,56.122-32.431,77.617
				c-19.91,23.004-50.81,29.419-80.223,37.193c22.849,36.8,30.169,85.449,17.937,127.003l-412.923,0.148
				c-5.638-18.99-6.631-40.586-1.117-59.612c5.513-19.026,17.814-36.321,34.909-46.331c-3.283-5.866-6.567-11.732-9.85-17.598
				c-29.714-3.78-58.444-10.124-86.289-21.163c-27.846-11.038-53.868-28.071-71.958-51.945
				c-29.201-38.536-34.65-90.071-32.106-138.354c1.25-23.724,4.194-47.493,10.803-70.289c1.114-3.842,3.691-7.092,7.153-9.096
				C59.694,85.306,59.711,85.296,59.729,85.285"/>
			<path style="opacity:0.26;fill:#F43B86;" d="M215.628,498.909c-1.822-16.93-2.58-34.273,1.582-50.784
				c6.516-25.851,25.579-48.227,50.066-58.767c-9.008-8.202-16.987-17.534-23.691-27.707c-29.864-0.433-61.487-4.103-89.337-14.894
				s-53.348-29.354-68.633-55.013c-10.578-17.757-15.917-38.134-19.563-58.478c-5.555-31-7.463-62.652-5.674-94.095
				c0.854-15.004,2.802-30.675,11.378-43.016c6.244-8.985,15.474-15.406,24.757-21.199c70-43.686,153.569-62.214,236.066-63.863
				c82.497-1.649,164.486,12.794,244.969,30.986c30.657,6.93,62.727,15.226,85.418,36.974c12.786,12.254,21.697,28.046,28.41,44.435
				c19.33,47.19,21.257,101.286,5.332,149.731c-4.433,13.487-10.317,26.731-19.472,37.581
				c-9.354,11.085-21.743,19.219-34.628,25.882c-25.498,13.185-53.669,21.176-82.292,23.343
				c21.019,15.175,36.548,37.217,44.706,61.824c8.158,24.607,8.36,51.783,0.569,76.509L215.628,498.909z"/>
		</g>
		<g>
			<path style="fill:#AEFFF1;" d="M60.409,231.403c-1.014,4.638-2.029,9.276-3.043,13.914c-0.379,1.732-0.76,3.485-0.71,5.258
				c0.157,5.569,4.459,10.129,8.991,13.369c4.661,3.332,9.862,5.905,15.338,7.589v-31.359c-8.558-1.033-16.43-8.658-17.617-17.196
				C61.961,226.235,61.167,227.936,60.409,231.403z"/>
			<path style="fill:#AEFFF1;" d="M710.712,191.235v37.245c0,0,1.064,11.379-30.062,12.118v-38.398
				C680.65,202.201,689.873,211.631,710.712,191.235z"/>
			<g>
				<path style="fill:#8BD6C8;" d="M381.062,181.924c-161.246,0-291.962,39.605-291.962,88.46c0,48.855,130.716,88.46,291.962,88.46
					s291.962-39.605,291.962-88.46C673.024,221.529,542.308,181.924,381.062,181.924z M381.062,347.76
					c-153.655,0-278.217-34.642-278.217-77.375c0-42.733,124.562-77.376,278.217-77.376s278.217,34.642,278.217,77.376
					C659.279,313.118,534.717,347.76,381.062,347.76z"/>
			</g>
			<g>
				<path style="fill:#42685F;" d="M183.849,215.809c-50.06,13.991-81.004,33.278-81.004,54.575
					c0,42.733,124.562,77.375,278.217,77.375s278.217-34.642,278.217-77.375c0-21.297-30.944-40.584-81.004-54.575
					c-51.952,14.428-121.184,23.235-197.213,23.235S235.801,230.237,183.849,215.809z"/>
			</g>
			<g>
				<path style="fill:#7267CB;" d="M298.73,311.578c-1.346-23.926-4.497-47.802-3.86-71.757
					c0.637-23.956,5.351-48.459,18.416-68.548c8.316-12.787,19.683-23.297,31.563-32.864c10.461-8.424,21.677-16.362,34.522-20.288
					c25.004-7.643,52.769,1.33,73.475,17.295c21.941,16.917,37.739,41.632,43.881,68.648c3.709,16.313,3.977,33.182,4.432,49.905
					c0.886,32.565,2.883,66.395,18.472,95c6.46,11.853,15.078,22.431,21.448,34.333c6.37,11.902,10.431,25.921,6.774,38.915
					c-3.847,13.672-15.552,23.79-28.073,30.493c-21.625,11.577-46.553,15.225-71.006,17.155c-31.506,2.487-63.213,2.429-94.71-0.173
					c-13.824-1.142-27.905-2.971-40.878-8.129c-7.78-3.093-19.801-7.894-22.98-16.509c-3.904-10.579,2.57-26.345,4.147-37.02
					c2.224-15.061,3.727-30.229,4.504-45.434C299.725,345.606,299.686,328.566,298.73,311.578z"/>
				<path style="opacity:0.5;fill:#7267CB;" d="M447.323,184.591c8.28,24.401,9.151,50.63,14.507,75.835
					c5.415,25.485,15.484,49.974,29.563,71.897c8.434,13.134,18.776,27.171,16.581,42.625c-1.598,11.249-9.754,20.547-18.953,27.217
					c-8.4,6.091-17.951,10.589-27.997,13.183c-13.794,3.563-28.254,3.521-42.479,2.731c-11.816-0.656-23.605-1.813-35.324-3.465
					c-11.506-1.623-23.226-3.825-33.228-9.74c-14.33-8.474-23.435-23.545-30.193-38.76c-21.903-49.309-24.721-106.811-7.745-158.026
					c6.066-18.301,14.792-36.128,28.39-49.797c9.405-9.454,20.853-16.1,33.662-19.702c8.572-2.411,18.492-6.785,27.501-4.827
					C424.345,138.703,440.429,164.272,447.323,184.591z"/>
				<path style="fill:#F2AB88;" d="M224.763,500.722c-0.526-15.083,2.335-30.075,5.801-44.764
					c1.368-5.799,2.852-11.626,5.489-16.968c2.831-5.737,6.917-10.757,11.205-15.504c10.89-12.054,23.489-22.802,38.102-29.898
					c8.426-4.091,17.398-6.916,26.333-9.725c14.287-4.492,28.574-8.984,42.861-13.477c-10.548,22.786-25.948,42.906-40.288,63.518
					c-14.34,20.612-27.929,42.358-34.092,66.699L224.763,500.722z"/>
				<g>
					<path style="fill:#DD9B7F;" d="M312.692,383.549c-12.205,12.028-23.613,24.881-34.229,38.334
						c-7.252,9.19-14.169,18.701-19.693,29.022c-8.309,15.526-13.268,32.505-16.996,49.78l38.401-0.082
						c6.163-24.341,19.752-46.087,34.092-66.699c14.34-20.612,29.739-40.732,40.288-63.518
						C340.601,374.774,326.646,379.162,312.692,383.549z"/>
				</g>
				<path style="fill:#FFFFFF;" d="M521.853,390.08c4.906-6.805,10.527-13.027,16.44-18.987
					c-8.972-3.815-18.261-7.089-27.344-10.454c-22.451-8.318-45.773-18.823-58.944-38.817c-6.414-9.735-9.911-21.053-11.855-32.605
					c-9.412,7.659-19.336,14.599-30.214,19.939c-17.17,8.428-37.227,12.504-55.689,8.236c0.432,3.511,0.776,7.033,1.014,10.563
					c0.412,6.09,0.527,12.279-0.858,18.224c-2.613,11.21-10.269,20.497-18.098,28.935c-9.583,10.328-19.782,20.074-29.283,30.477
					c-24.521,26.85-44.62,58.925-51.323,94.665l215.009-0.737c9.877-25.832,20.758-51.28,32.612-76.266
					C508.756,411.794,514.435,400.37,521.853,390.08z"/>
				<g style="opacity:0.56;">
					<path style="fill:#DDDDDD;" d="M531.866,376.277c-16.073,17.086-32.707,33.755-46.734,52.557
						c-14.027,18.802-25.479,40.037-29.685,63.115c-0.482,2.646-1.044,5.157-1.636,7.629l16.897-0.058
						c9.877-25.832,20.758-51.28,32.612-76.266c5.438-11.461,11.116-22.885,18.534-33.175c4.906-6.805,10.527-13.027,16.44-18.987
						c-0.487-0.207-0.984-0.397-1.473-0.602C535.273,372.49,533.62,374.413,531.866,376.277z"/>
					<path style="fill:#DDDDDD;" d="M362.032,396.415c-7.457-8.813-14.244-18.485-19.039-28.938
						c-2.136,2.636-4.403,5.175-6.69,7.639c-9.583,10.328-19.782,20.074-29.283,30.477c-2.834,3.104-5.606,6.28-8.309,9.521
						c15.271,26.147,24.594,55.401,32.618,84.885l108.849-0.373c-11.476-21.825-23.78-42.774-39.776-61.782
						C388.28,423.439,374.193,410.787,362.032,396.415z"/>
					<path style="fill:#DDDDDD;" d="M384.458,371.951c-11.89-0.149-24.235-3.173-33.082-11.118
						c1.613,7.4,6.826,13.208,13.475,16.835c6.649,3.626,14.26,5.085,21.792,5.877c6.856,0.721,13.804,0.93,20.63-0.037
						c17.259-2.444,32.7-12.26,45.528-24.064c6.325-5.82,12.144-12.185,17.406-18.981c-3.724-2.716-7.216-5.691-10.401-8.974
						C442.69,355.76,414.125,372.323,384.458,371.951z"/>
				</g>
				<path style="fill:#F2AB88;" d="M409.935,309.157c10.877-5.34,20.801-12.28,30.214-19.939c-0.457-2.717-0.83-5.446-1.133-8.171
					c-2.053-18.461-1.089-19.346-0.236-37.902c-28.215,23.257-58.402,27.85-90.174,45.948c2.583,9.275,4.464,18.744,5.64,28.3
					C372.708,321.661,392.765,317.585,409.935,309.157z"/>
				<path style="fill:#FFC59A;" d="M597.37,444.012c-1.947-18.781-9.908-37.101-23.273-50.438
					c-10.091-10.07-22.6-16.866-35.805-22.48c-5.913,5.96-11.534,12.181-16.44,18.987c-7.418,10.29-13.096,21.714-18.534,33.175
					c-11.855,24.986-22.735,50.434-32.612,76.266l116.858-0.4C595.443,481.961,599.317,462.793,597.37,444.012z"/>
				<g>
					<path style="fill:#FFC59A;" d="M401.965,153.393c-9.51-3.41-19.664-5.035-29.761-4.636c-12.41,0.49-24.496,3.895-36.446,7.278
						c-6.44,1.823-14.229,3.977-16.075,10.41c-3.629,12.642-6.613,25.507-8.018,38.584c-1.753,16.323-1.021,32.91,2.165,49.014
						c1.815,9.175,4.492,18.348,9.618,26.17c5.126,7.823,13.019,14.057,22.19,15.892c18.787,3.76,45.22-7.154,55.77-12.759
						c14.787-7.855,24.28-19.381,33.515-33.347c1.449-2.192,2.715-4.488,3.855-6.855c-0.913-6.166-1.757-12.354-2.949-18.447
						C430.725,198.603,418.911,173.873,401.965,153.393z"/>
					<g>
						<path style="fill:#F2AB88;" d="M398.667,205.859c4.187,0.276,8.472,0.608,12.297,2.332c5.086,2.292,8.791,6.772,12.308,11.104
							c4.942,6.088,9.897,12.205,14.712,18.423c-0.642-4.36-1.309-8.715-2.151-13.021c-5.106-26.095-16.92-50.825-33.866-71.305
							c-9.51-3.41-19.664-5.035-29.761-4.636c-12.41,0.49-24.496,3.895-36.446,7.278c-6.44,1.823-14.229,3.977-16.075,10.41
							c-3.6,12.542-6.562,25.304-7.98,38.275C340.685,203.583,369.725,203.952,398.667,205.859z"/>
					</g>
				</g>
				<path style="fill:#EF8F7D;" d="M359.153,243.063c-1.647-1.227-3.293-2.454-4.94-3.681c-3.455-2.574-7.401-5.285-11.671-4.708
					c-4.809,0.651-8.003,5.157-10.596,9.259c0.861,4.131,2.374,8.088,5.813,10.534c3.926,2.793,9.558,2.169,13.602-0.451
					S357.08,247.413,359.153,243.063z"/>
				
					<ellipse transform="matrix(0.7071 -0.7071 0.7071 0.7071 -42.5382 344.6384)" style="fill:#FFA087;" cx="394.746" cy="223.667" rx="13.684" ry="13.684"/>
				<path style="fill:none;stroke:#56052A;stroke-width:2;stroke-linecap:round;stroke-linejoin:round;stroke-miterlimit:10;" d="
					M333.522,187.669c0.895,4.735,1.754,9.815-0.197,14.221c-1.252,2.828-3.644,5.131-6.518,6.276
					c-0.358,0.143-0.759,0.299-0.925,0.647c-0.25,0.525,0.178,1.109,0.591,1.519c3.311,3.279,7.617,5.538,12.197,6.401"/>
				<path style="fill:none;stroke:#56052A;stroke-width:2;stroke-linecap:round;stroke-linejoin:round;stroke-miterlimit:10;" d="
					M330.211,242.838c10.87,4.723,23.955,3.991,34.231-1.916"/>
				<g>
					<path style="fill:#F2AB88;" d="M543.459,373.375c-1.708-0.784-3.431-1.544-5.167-2.282c-5.913,5.96-11.534,12.181-16.44,18.987
						c-7.418,10.29-13.096,21.714-18.534,33.175c-11.855,24.986-22.735,50.434-32.612,76.266l30.608-0.105
						c1.268-19.944,4.545-39.761,9.818-59.038C517.723,416.283,527.672,392.639,543.459,373.375z"/>
				</g>
				<g>
					<path style="fill:#FFC59A;" d="M431.044,500.049c-11.654-29.337-33.587-53.163-54.223-77.051
						c-20.636-23.888-40.98-49.657-48.277-80.37c-2.061-8.676-3.03-17.576-4.874-26.301c-2.53-11.969-6.783-23.718-13.802-33.738
						c-7.019-10.02-16.964-18.238-28.646-21.87c-6.728-2.091-15.897-1.524-18.501,5.022c-1.691,4.25,0.298,8.952,1.453,13.378
						c3.196,12.243-0.523,25.821-9.508,34.729c-5.76-5.875-12.528-9.189-18.865-14.436c-4.779-3.957-9.557-7.914-14.336-11.871
						c-2.15-1.78-4.411-3.616-7.136-4.223c-2.725-0.607-4.039-0.55-5.055,2.05c-0.845,2.162,0.102,4.578,1.124,6.662
						c3.791,7.725,8.82,14.84,14.837,20.991c2.993,3.06,6.233,5.889,8.997,9.158c3.895,4.607,6.956,9.857,9.932,15.104
						c14.735,25.981,23.603,29.089,38.574,38.945c10.894,7.173,15.741,20.704,21.726,32.293
						c15.35,29.724,30.752,59.569,41.804,91.144L431.044,500.049z"/>
					<g>
						<path style="fill:#F2AB88;" d="M225.082,301.573c-4.27-5.361-8.162-11.49-9.897-18.012c-0.281-0.091-0.565-0.177-0.856-0.242
							c-2.725-0.607-4.039-0.55-5.055,2.05c-0.845,2.162,0.102,4.578,1.124,6.662c3.791,7.725,8.82,14.84,14.837,20.991
							c2.993,3.06,6.233,5.889,8.997,9.158c3.895,4.607,6.956,9.857,9.932,15.104c1.089,1.921,2.143,3.702,3.173,5.385
							c-1.266-5.619-2.295-11.305-4.552-16.588C238.813,316.779,231.384,309.487,225.082,301.573z"/>
						<path style="fill:#F2AB88;" d="M302.908,380.291c-2.056-1.474-4.709-1.74-7.219-2.054c-4.829-0.604-9.607-1.582-14.296-2.886
							c0.443,0.288,0.892,0.58,1.346,0.879c10.894,7.173,15.741,20.704,21.726,32.293c15.35,29.724,30.752,59.569,41.804,91.144
							l19.808,0.089c-22.37-36.85-36.281-79.165-59.859-115.559C305.284,382.757,304.304,381.292,302.908,380.291z"/>
						<path style="fill:#F2AB88;" d="M279.5,345.714c3.709,5.039,8.584,9.526,14.6,11.245c-9.536-22.13-5.318-47.409-2.425-71.331
							c0.406-3.355,0.769-6.848-0.339-10.041c-2.23-6.431-10.052-9.597-16.762-8.45c-4.474,0.765-8.482,3.007-12.063,5.862
							c0.446,2.052,1.138,4.115,1.662,6.121c2.921,11.191,0.05,23.488-7.326,32.324c4.155,6.172,8.91,11.966,12.864,18.264
							C273.038,335.007,275.791,340.675,279.5,345.714z"/>
					</g>
					<g>
						<path style="fill:none;stroke:#D3835F;stroke-linecap:round;stroke-linejoin:round;stroke-miterlimit:10;" d="
							M254.831,313.288c5.889,3.603,10.969,8.521,14.761,14.291c1.786,2.717,3.284,5.612,4.779,8.499
							c1.451,2.802,2.901,5.605,4.352,8.408"/>
						<path style="fill:none;stroke:#D3835F;stroke-linecap:round;stroke-linejoin:round;stroke-miterlimit:10;" d="
							M226.618,307.622c3.811-1.498,6.74-5.054,7.478-9.082"/>
						<path style="fill:none;stroke:#D3835F;stroke-linecap:round;stroke-linejoin:round;stroke-miterlimit:10;" d="
							M232.265,311.795c2.611-1.95,4.553-4.779,5.434-7.916"/>
						<path style="fill:none;stroke:#D3835F;stroke-linecap:round;stroke-linejoin:round;stroke-miterlimit:10;" d="M291.299,285.71
							c-3.462,23.591-6.752,48.629,2.74,70.502"/>
						<path style="fill:none;stroke:#D3835F;stroke-linecap:round;stroke-linejoin:round;stroke-miterlimit:10;" d="
							M288.583,304.362c-7.002-2.662-13.209-7.377-17.652-13.409"/>
					</g>
					<g>
						<path style="fill:#FFC59A;" d="M225.865,204.942c-0.667,4.565,1.899,9.031,5.137,12.318c3.238,3.286,7.194,5.8,10.406,9.112
							c5.431,5.598,8.386,13.08,11.209,20.35c3.051,7.859,6.103,15.718,9.154,23.576c0.974,2.508,2.277,5.328,4.868,6.052
							c2.52,0.703,5.214-1.072,6.377-3.416c1.163-2.343,1.138-5.084,0.939-7.693c-1.053-13.792-6.513-27.154-15.153-37.928
							C251.419,218.105,238.093,205.911,225.865,204.942z"/>
						<g>
							<path style="fill:#F2AB88;" d="M261.979,255.38c-2.156-5.974-4.191-12.055-7.487-17.484
								c-3.86-6.358-9.301-11.58-13.908-17.42c-3.257-4.129-6.156-8.798-7.543-13.808c-2.399-0.926-4.808-1.539-7.177-1.727
								c-0.667,4.565,1.899,9.031,5.137,12.318c3.238,3.286,7.194,5.8,10.406,9.112c5.431,5.598,8.386,13.08,11.209,20.35
								c3.051,7.859,6.103,15.718,9.154,23.576c0.974,2.508,2.277,5.328,4.868,6.052c1.167,0.326,2.369,0.115,3.441-0.432
								C267.194,269.146,264.478,262.303,261.979,255.38z"/>
						</g>
					</g>
					<path style="fill:#F2AB88;" d="M276.11,271.535c0.575,1.39-3.61,0.46-2.552,1.53c2.521,2.548,7.444,1.889,9.206-1.233
						c1.52-2.694,0.691-6.056-0.247-9.004c-2.509-7.884-5.642-15.639-9.885-22.76c-3.416-5.734-9.434-15.553-16.002-18.146
						c-2.926-1.155-12.474-13.616-18.931-11.364c-2.717,10.248,25.236,29.133,26.352,31.83
						C268.071,252.103,272.091,261.819,276.11,271.535z"/>
					<path style="fill:#FFC59A;" d="M245.571,210.984c-1.354-0.435-2.98-0.749-4.079,0.153c-1.416,1.162-0.939,3.426-0.164,5.086
						c3.018,6.462,8.556,11.457,14.633,15.191c3.197,1.965,6.603,3.65,9.428,6.12c10.781,9.427,10.096,27.097,19.797,37.632
						c2.352,2.554,6.992,4.356,8.869,1.435c0.535-0.832,0.659-1.856,0.725-2.842c0.422-6.296-0.994-12.569-2.764-18.625
						c-2.489-8.518-6.181-26.131-14.629-30.203c-5.062-2.44-10.723-3.581-15.84-6.303
						C256.335,215.853,251.226,212.799,245.571,210.984z"/>
					<g>
						<path style="fill:#F2AB88;" d="M294.057,276.6c0.534-0.832,0.659-1.856,0.725-2.842c0.422-6.296-0.994-12.569-2.764-18.625
							c-2.489-8.518-6.181-26.131-14.629-30.204c-3.592-1.731-7.483-2.816-11.27-4.268c3.719,5.336,6.4,11.458,8.624,17.608
							c3.211,8.882,5.649,18.084,9.845,26.545c2.267,4.573,5.146,8.965,8.671,12.645C293.559,277.237,293.829,276.955,294.057,276.6
							z"/>
					</g>
					<path style="fill:#FFC59A;" d="M285.612,256.146c-4.13-10.159-8.265-20.331-11.586-30.782c-0.64-2.015-1.257-4.126-0.922-6.214
						c0.335-2.087,1.912-4.132,4.021-4.285c4.722,7.465,9.444,14.929,14.166,22.394c2.59,4.094,5.192,8.21,7.104,12.662
						c1.895,4.41,3.085,9.084,4.634,13.627c1.323,3.88,2.915,7.657,4.571,11.405c1.35,3.056,4.862,7.857,5.057,11.169
						c0.374,6.341-8.33,2.272-11.809-0.028C292.276,280.426,289.231,265.047,285.612,256.146z"/>
					<g>
						<path style="fill:#FFFFFF;" d="M245.635,214.513c0.324,0.433,0.772,0.756,1.229,1.045c2.075,1.309,4.507,2.045,6.96,2.105
							c0.711,0.018,1.513-0.063,1.964-0.613c0.297-0.363,0.371-0.855,0.387-1.324c-3.422-1.827-6.895-3.552-10.603-4.743
							c-0.551-0.177-1.147-0.329-1.735-0.392c0.389,0.669,0.732,1.365,0.992,2.093C245.053,213.315,245.234,213.977,245.635,214.513
							z"/>
						<path style="fill:#FFFFFF;" d="M278.776,225.753c0.846,0.591,1.641,1.322,2.387,2.165c0.1,0.003,0.201,0.005,0.302-0.031
							c0.277-0.101,0.471-0.346,0.647-0.582c0.529-0.707,1.028-1.436,1.503-2.18c-2.145-3.39-4.289-6.78-6.434-10.17
							C276.093,218.543,276.673,222.648,278.776,225.753z"/>
						<path style="fill:#FFFFFF;" d="M278.776,225.753c0.364,0.538,0.771,1.048,1.225,1.517c0.316,0.327,0.734,0.637,1.162,0.648
							C280.417,227.074,279.623,226.344,278.776,225.753z"/>
					</g>
				</g>
				<path style="opacity:0.25;fill:#FFFFFF;" d="M452.072,278.207c4.665,20.219,16.028,38.832,31.879,52.222
					c-20.087-23.423-25.066-56.634-21.835-87.322c2.893,39.946,20.033,78.713,47.632,107.735
					c-21.22-28.224-33.333-63.187-34.124-98.489c4.198,18.75,11.468,36.809,21.433,53.237c-10.726-27.714-13.433-58.48-7.711-87.642
					c-2.904,10.227-5.807,20.455-8.711,30.682c-4.697-16.032-6.837-32.809-6.317-49.507c-3.038,16.117-4.362,32.557-3.939,48.953
					c-3.143-13.438-8.436-26.37-15.616-38.155c0.44,11.093-0.138,22.227-1.726,33.214c2.374-16.427-4.826-35.837-14.083-49.064
					C450.533,220.985,445.607,250.191,452.072,278.207z"/>
			</g>
			<g>
				<path style="fill:#60A597;" d="M673.024,150.584c0-48.855-130.716-88.46-291.962-88.46S89.1,101.729,89.1,150.584
					c0,0.133,0.015,0.265,0.017,0.398H89.1v119.402c0-23.108,29.255-44.143,77.141-59.9c53.355-17.557,129.843-28.56,214.821-28.56
					s161.466,11.003,214.821,28.56c44.399,14.61,72.769,33.758,76.665,54.888l0.476-0.004V150.982h-0.017
					C673.009,150.849,673.024,150.717,673.024,150.584z"/>
				<path style="fill:#60A597;" d="M89.104,270.487c0-0.034-0.004-0.068-0.004-0.102v0.102H89.104z"/>
			</g>
			<path style="fill:#8BD6C8;" d="M149.826,83.935v115.358c0,0,123.262-65.255,334.315-36.435V49.351
				C484.141,49.351,325.408,15.653,149.826,83.935z"/>
			<g>
				<g>
					<g style="opacity:0.31;">
						<path style="fill:#CCFFF5;" d="M432.401,149.316c-9.605-22.539-19.272-45.051-29.002-67.536
							c-7.852,13.958-15.6,27.975-23.276,42.031c-9.563-23.219-19.176-46.416-28.836-69.594
							c-7.726,20.148-15.383,40.322-22.97,60.523c-9.94,4.391-14.904,6.708-24.807,11.581c-8.425-5.961-16.946-11.81-25.54-17.525
							c-8.516,4.786-16.95,9.779-25.244,14.941c-8.743-8.467-17.561-16.856-26.455-25.164c-8.117,6.109-16.132,12.398-23.997,18.828
							c-7.242-8.212-14.51-16.397-21.809-24.558c1.257,27.124,2.515,54.247,3.774,81.371
							C264.998,147.553,347.954,139.194,432.401,149.316z"/>
					</g>
					<g>
						<g>
							<path style="fill:#CCFFF5;" d="M184.244,175.638c-0.494,0.158-0.972,0.174-1.335,0.044c-0.38-0.135-0.603-0.421-0.622-0.792
								c-1.596-31.457-3.191-62.915-4.786-94.372c-0.039-0.774,0.806-1.7,1.885-2.067c1.069-0.364,1.989-0.03,2.028,0.744
								c1.569,30.984,3.139,61.967,4.709,92.951c85.877-27.977,174.114-35.282,263.408-21.684c1.095,0.164,2.063,0.959,2.102,1.722
								c0.039,0.762-0.84,1.227-1.963,1.042c-89.928-13.72-178.995-6.161-265.358,22.391
								C184.288,175.624,184.266,175.631,184.244,175.638z"/>
						</g>
						<g>
							<path style="fill:#CCFFF5;" d="M203.691,165.296c-0.057-1.12-0.085-1.68-0.141-2.8c0.789-0.238,1.183-0.357,1.973-0.592
								c0.057,1.12,0.085,1.68,0.141,2.8C204.874,164.939,204.48,165.058,203.691,165.296z M203.408,159.696
								c-0.057-1.12-0.085-1.68-0.141-2.8c0.789-0.238,1.183-0.357,1.973-0.592c0.057,1.12,0.085,1.68,0.141,2.8
								C204.592,159.34,204.197,159.458,203.408,159.696z M203.125,154.096c-0.057-1.12-0.085-1.68-0.141-2.8
								c0.789-0.238,1.184-0.356,1.973-0.591c0.057,1.12,0.085,1.68,0.141,2.799C204.309,153.739,203.914,153.858,203.125,154.096z
								 M202.843,148.496c-0.057-1.12-0.085-1.68-0.141-2.8c0.789-0.238,1.184-0.356,1.973-0.59c0.057,1.12,0.085,1.68,0.141,2.8
								C204.026,148.14,203.632,148.258,202.843,148.496z M202.56,142.896c-0.057-1.12-0.085-1.68-0.141-2.8
								c0.789-0.237,1.184-0.355,1.974-0.59c0.057,1.12,0.085,1.68,0.141,2.8C203.743,142.54,203.349,142.658,202.56,142.896z
								 M202.277,137.296c-0.056-1.12-0.084-1.681-0.14-2.801c0.789-0.237,1.184-0.354,1.974-0.588c0.056,1.12,0.084,1.68,0.14,2.8
								C203.461,136.941,203.066,137.059,202.277,137.296z M201.995,131.695c-0.057-1.12-0.085-1.68-0.141-2.799
								c0.789-0.237,1.184-0.355,1.974-0.589c0.057,1.12,0.085,1.68,0.141,2.799C203.179,131.341,202.784,131.458,201.995,131.695z
								 M201.712,126.096c-0.057-1.12-0.085-1.68-0.141-2.8c0.789-0.237,1.184-0.354,1.974-0.588c0.057,1.12,0.085,1.68,0.141,2.8
								C202.896,125.741,202.501,125.859,201.712,126.096z M201.43,120.496c-0.057-1.12-0.085-1.68-0.141-2.8
								c0.789-0.236,1.184-0.354,1.974-0.587c0.057,1.12,0.085,1.68,0.141,2.8C202.614,120.142,202.219,120.259,201.43,120.496z"/>
						</g>
						<g>
							<path style="fill:#CCFFF5;" d="M227.632,158.008c-0.056-1.118-0.084-1.678-0.141-2.796c0.797-0.202,1.196-0.302,1.993-0.5
								c0.056,1.118,0.084,1.677,0.141,2.796C228.827,157.706,228.429,157.806,227.632,158.008z M227.35,152.415
								c-0.056-1.118-0.084-1.678-0.141-2.796c0.797-0.201,1.196-0.301,1.993-0.5c0.056,1.118,0.084,1.677,0.141,2.796
								C228.546,152.113,228.147,152.213,227.35,152.415z M227.069,146.822c-0.056-1.119-0.084-1.678-0.141-2.797
								c0.797-0.201,1.196-0.301,1.993-0.499c0.056,1.119,0.084,1.678,0.141,2.796C228.265,146.521,227.866,146.621,227.069,146.822
								z M226.788,141.229c-0.056-1.119-0.084-1.678-0.141-2.797c0.797-0.201,1.196-0.301,1.994-0.499
								c0.056,1.119,0.084,1.678,0.141,2.796C227.984,140.928,227.585,141.028,226.788,141.229z M226.507,135.636
								c-0.056-1.118-0.084-1.678-0.141-2.796c0.797-0.201,1.196-0.3,1.994-0.498c0.056,1.118,0.084,1.677,0.141,2.796
								C227.703,135.336,227.304,135.435,226.507,135.636z M226.226,130.043c-0.056-1.119-0.084-1.678-0.141-2.797
								c0.797-0.2,1.196-0.3,1.994-0.497c0.056,1.119,0.084,1.678,0.14,2.796C227.422,129.743,227.024,129.843,226.226,130.043z
								 M225.945,124.451c-0.056-1.119-0.084-1.678-0.141-2.797c0.797-0.2,1.196-0.3,1.994-0.497
								c0.056,1.118,0.084,1.678,0.141,2.796C227.141,124.151,226.742,124.25,225.945,124.451z M225.664,118.857
								c-0.056-1.118-0.084-1.678-0.141-2.796c0.797-0.2,1.196-0.299,1.994-0.496c0.056,1.118,0.084,1.677,0.141,2.796
								C226.86,118.558,226.461,118.657,225.664,118.857z M225.383,113.265c-0.056-1.118-0.084-1.677-0.141-2.796
								c0.797-0.2,1.196-0.299,1.994-0.495c0.056,1.118,0.084,1.677,0.141,2.796C226.579,112.966,226.18,113.065,225.383,113.265z
								 M225.102,107.672c-0.056-1.119-0.084-1.678-0.141-2.797c0.797-0.199,1.196-0.298,1.994-0.495
								c0.056,1.118,0.084,1.678,0.14,2.796C226.298,107.374,225.899,107.473,225.102,107.672z M224.82,102.08
								c-0.056-1.119-0.084-1.678-0.141-2.797c0.797-0.199,1.196-0.298,1.994-0.494c0.056,1.118,0.084,1.678,0.14,2.796
								C226.017,101.782,225.618,101.881,224.82,102.08z"/>
						</g>
						<g>
							<path style="fill:#CCFFF5;" d="M253.241,153.852c-0.056-1.117-0.084-1.676-0.14-2.793c0.804-0.163,1.206-0.243,2.011-0.403
								c0.056,1.117,0.084,1.676,0.14,2.793C254.447,153.609,254.045,153.689,253.241,153.852z M252.961,148.267
								c-0.056-1.118-0.083-1.676-0.139-2.794c0.804-0.162,1.206-0.242,2.011-0.401c0.056,1.117,0.083,1.676,0.139,2.793
								C254.168,148.024,253.765,148.105,252.961,148.267z M252.682,142.681c-0.056-1.117-0.084-1.675-0.14-2.792
								c0.804-0.162,1.207-0.243,2.011-0.402c0.056,1.117,0.084,1.675,0.14,2.792C253.889,142.438,253.486,142.518,252.682,142.681z
								 M252.402,137.096c-0.056-1.117-0.084-1.675-0.14-2.792c0.804-0.162,1.207-0.242,2.011-0.401
								c0.056,1.117,0.084,1.675,0.14,2.792C253.609,136.853,253.207,136.934,252.402,137.096z M252.123,131.511
								c-0.056-1.117-0.084-1.676-0.14-2.793c0.804-0.162,1.207-0.242,2.011-0.401c0.056,1.117,0.084,1.676,0.14,2.793
								C253.329,131.269,252.927,131.349,252.123,131.511z M251.843,125.926c-0.056-1.117-0.084-1.676-0.14-2.793
								c0.804-0.162,1.207-0.242,2.012-0.4c0.056,1.117,0.084,1.676,0.14,2.793C253.049,125.684,252.647,125.764,251.843,125.926z"
								/>
						</g>
						<g>
							<path style="fill:#CCFFF5;" d="M303.415,144.908c-0.056-1.114-0.083-1.671-0.139-2.785c0.814-0.087,1.221-0.129,2.035-0.213
								c0.056,1.114,0.083,1.671,0.139,2.785C304.636,144.778,304.229,144.821,303.415,144.908z M303.137,139.337
								c-0.056-1.114-0.083-1.671-0.139-2.785c0.814-0.087,1.221-0.129,2.035-0.213c0.056,1.114,0.083,1.671,0.139,2.785
								C304.358,139.207,303.951,139.25,303.137,139.337z M302.859,133.766c-0.056-1.114-0.083-1.671-0.139-2.786
								c0.814-0.086,1.221-0.129,2.035-0.212c0.056,1.114,0.083,1.671,0.139,2.785C304.08,133.638,303.673,133.68,302.859,133.766z
								 M302.581,128.196c-0.056-1.114-0.083-1.671-0.139-2.785c0.814-0.086,1.221-0.128,2.035-0.211
								c0.056,1.114,0.083,1.671,0.139,2.785C303.802,128.068,303.395,128.11,302.581,128.196z"/>
						</g>
						<g>
							<path style="fill:#CCFFF5;" d="M329.782,144.743c-0.055-1.113-0.083-1.669-0.139-2.782c0.817-0.047,1.225-0.07,2.043-0.115
								c0.055,1.113,0.083,1.669,0.139,2.781C331.008,144.673,330.599,144.696,329.782,144.743z M329.505,139.18
								c-0.056-1.113-0.083-1.669-0.139-2.782c0.817-0.047,1.225-0.07,2.043-0.114c0.055,1.113,0.083,1.669,0.139,2.781
								C330.731,139.11,330.322,139.133,329.505,139.18z M329.228,133.617c-0.055-1.112-0.083-1.669-0.138-2.781
								c0.817-0.047,1.225-0.069,2.043-0.113c0.055,1.113,0.083,1.669,0.138,2.781C330.453,133.548,330.045,133.571,329.228,133.617
								z M328.951,128.055c-0.055-1.112-0.083-1.669-0.139-2.781c0.817-0.047,1.226-0.069,2.043-0.113
								c0.055,1.112,0.083,1.668,0.139,2.781C330.177,127.985,329.768,128.008,328.951,128.055z M328.674,122.492
								c-0.055-1.113-0.083-1.669-0.139-2.782c0.817-0.046,1.226-0.069,2.043-0.112c0.055,1.113,0.083,1.669,0.139,2.781
								C329.9,122.423,329.491,122.446,328.674,122.492z M328.397,116.93c-0.055-1.113-0.083-1.669-0.139-2.782
								c0.817-0.046,1.226-0.068,2.043-0.111c0.055,1.113,0.083,1.669,0.139,2.781C329.622,116.861,329.214,116.883,328.397,116.93z
								"/>
						</g>
						<g>
							<path style="fill:#CCFFF5;" d="M354.742,144.03c-0.018-0.369-0.027-0.554-0.046-0.923c0.818-0.01,1.228-0.014,2.046-0.021
								c0.018,0.369,0.027,0.554,0.046,0.923C355.969,144.016,355.56,144.02,354.742,144.03z M354.557,140.328
								c-0.055-1.111-0.083-1.667-0.138-2.778c0.819-0.01,1.228-0.014,2.046-0.02c0.055,1.111,0.083,1.667,0.138,2.778
								C355.785,140.314,355.376,140.319,354.557,140.328z M354.28,134.773c-0.055-1.111-0.083-1.667-0.139-2.778
								c0.819-0.009,1.228-0.013,2.046-0.02c0.055,1.111,0.083,1.667,0.138,2.778C355.508,134.76,355.099,134.764,354.28,134.773z
								 M354.003,129.217c-0.055-1.111-0.083-1.666-0.139-2.777c0.819-0.009,1.228-0.013,2.046-0.019
								c0.055,1.111,0.083,1.666,0.138,2.777C355.231,129.204,354.822,129.208,354.003,129.217z M353.726,123.662
								c-0.055-1.111-0.083-1.667-0.138-2.778c0.818-0.009,1.228-0.013,2.046-0.018c0.055,1.111,0.083,1.667,0.139,2.778
								C354.954,123.649,354.544,123.653,353.726,123.662z M353.449,118.107c-0.055-1.111-0.083-1.667-0.138-2.778
								c0.818-0.009,1.228-0.012,2.046-0.018c0.055,1.111,0.083,1.667,0.139,2.778C354.677,118.094,354.267,118.098,353.449,118.107
								z M353.172,112.551c-0.055-1.111-0.083-1.666-0.138-2.777c0.819-0.008,1.228-0.012,2.046-0.017
								c0.055,1.111,0.083,1.666,0.139,2.777C354.4,112.539,353.99,112.542,353.172,112.551z M352.895,106.996
								c-0.055-1.111-0.083-1.666-0.138-2.777c0.819-0.008,1.228-0.011,2.046-0.016c0.055,1.111,0.083,1.666,0.139,2.777
								C354.123,106.984,353.713,106.988,352.895,106.996z M352.618,101.441c-0.055-1.111-0.083-1.667-0.139-2.778
								c0.819-0.008,1.228-0.011,2.046-0.016c0.055,1.111,0.083,1.667,0.139,2.778C353.846,101.43,353.436,101.433,352.618,101.441z
								 M352.341,95.886c-0.055-1.111-0.083-1.667-0.138-2.778c0.819-0.008,1.228-0.011,2.046-0.015
								c0.055,1.111,0.083,1.667,0.139,2.777C353.569,95.875,353.159,95.878,352.341,95.886z M352.065,90.33
								c-0.055-1.111-0.083-1.666-0.139-2.777c0.819-0.007,1.228-0.01,2.046-0.015c0.055,1.111,0.083,1.666,0.139,2.777
								C353.293,90.32,352.883,90.323,352.065,90.33z M351.788,84.775c-0.055-1.111-0.083-1.667-0.139-2.778
								c0.819-0.007,1.228-0.01,2.046-0.014c0.055,1.111,0.083,1.666,0.139,2.777C353.015,84.765,352.606,84.768,351.788,84.775z
								 M351.511,79.221c-0.055-1.111-0.083-1.667-0.139-2.778c0.819-0.007,1.228-0.01,2.046-0.013
								c0.055,1.111,0.083,1.666,0.139,2.777C352.738,79.211,352.329,79.214,351.511,79.221z M351.234,73.665
								c-0.055-1.111-0.083-1.666-0.139-2.777c0.819-0.007,1.228-0.009,2.046-0.013c0.055,1.111,0.083,1.666,0.139,2.777
								C352.461,73.656,352.052,73.658,351.234,73.665z M350.957,68.11c-0.055-1.111-0.083-1.666-0.139-2.777
								c0.819-0.006,1.228-0.009,2.046-0.012c0.055,1.111,0.083,1.666,0.139,2.777C352.184,68.101,351.775,68.104,350.957,68.11z
								 M350.679,62.556c-0.055-1.111-0.083-1.667-0.139-2.778c0.819-0.006,1.228-0.009,2.047-0.012
								c0.055,1.111,0.083,1.666,0.139,2.777C351.907,62.547,351.498,62.549,350.679,62.556z M350.402,57.001
								c-0.055-1.111-0.083-1.667-0.139-2.778c0.819-0.006,1.228-0.008,2.047-0.011c0.055,1.111,0.083,1.666,0.139,2.777
								C351.63,56.993,351.221,56.995,350.402,57.001z"/>
						</g>
						<g>
							<path style="fill:#CCFFF5;" d="M381.501,144.372c-0.006-0.125-0.01-0.187-0.016-0.312c0.819,0.03,1.228,0.046,2.047,0.079
								c0.006,0.125,0.01,0.187,0.016,0.312C382.73,144.418,382.32,144.402,381.501,144.372z M381.347,141.285
								c-0.055-1.109-0.082-1.664-0.137-2.773c0.819,0.031,1.228,0.047,2.047,0.082c0.055,1.109,0.082,1.664,0.137,2.773
								C382.575,141.333,382.166,141.316,381.347,141.285z M381.071,135.738c-0.055-1.109-0.083-1.664-0.138-2.773
								c0.819,0.031,1.228,0.047,2.047,0.081c0.055,1.109,0.083,1.664,0.139,2.773C382.299,135.785,381.89,135.769,381.071,135.738z
								 M380.794,130.191c-0.055-1.11-0.083-1.664-0.138-2.774c0.819,0.031,1.228,0.048,2.047,0.082
								c0.055,1.109,0.083,1.664,0.139,2.774C382.022,130.238,381.613,130.222,380.794,130.191z M380.517,124.643
								c-0.055-1.11-0.083-1.664-0.138-2.774c0.819,0.031,1.228,0.048,2.047,0.083c0.055,1.109,0.083,1.664,0.139,2.774
								C381.745,124.691,381.336,124.675,380.517,124.643z"/>
						</g>
						<g>
							<path style="fill:#CCFFF5;" d="M405.573,145.81c-0.055-1.092-0.082-1.638-0.137-2.729c0.818,0.067,1.227,0.101,2.044,0.172
								c0.055,1.092,0.082,1.637,0.137,2.729C406.8,145.911,406.391,145.877,405.573,145.81z M405.298,140.31
								c-0.055-1.108-0.083-1.662-0.139-2.77c0.818,0.067,1.227,0.102,2.044,0.172c0.055,1.108,0.083,1.662,0.139,2.769
								C406.525,140.412,406.116,140.378,405.298,140.31z M405.021,134.77c-0.055-1.108-0.083-1.662-0.139-2.77
								c0.818,0.068,1.227,0.102,2.044,0.173c0.055,1.108,0.083,1.662,0.139,2.769C406.248,134.872,405.839,134.838,405.021,134.77z
								 M404.744,129.23c-0.055-1.108-0.083-1.662-0.139-2.77c0.818,0.068,1.227,0.103,2.044,0.173
								c0.055,1.108,0.083,1.662,0.139,2.77C405.971,129.332,405.562,129.298,404.744,129.23z M404.467,123.69
								c-0.055-1.108-0.083-1.662-0.139-2.77c0.818,0.068,1.227,0.103,2.044,0.174c0.055,1.108,0.083,1.662,0.139,2.77
								C405.693,123.792,405.285,123.758,404.467,123.69z M404.189,118.149c-0.055-1.108-0.083-1.662-0.138-2.77
								c0.818,0.068,1.227,0.103,2.044,0.175c0.055,1.108,0.083,1.662,0.138,2.77C405.416,118.252,405.007,118.217,404.189,118.149z
								 M403.913,112.609c-0.055-1.108-0.083-1.662-0.139-2.77c0.818,0.069,1.227,0.104,2.044,0.175
								c0.055,1.108,0.083,1.662,0.139,2.77C405.14,112.712,404.731,112.677,403.913,112.609z M403.636,107.069
								c-0.055-1.108-0.083-1.662-0.139-2.77c0.818,0.069,1.227,0.104,2.044,0.176c0.055,1.108,0.083,1.662,0.139,2.77
								C404.863,107.173,404.454,107.138,403.636,107.069z M403.359,101.528c-0.055-1.108-0.083-1.662-0.139-2.77
								c0.818,0.069,1.227,0.104,2.044,0.177c0.055,1.108,0.083,1.662,0.139,2.769C404.586,101.632,404.177,101.597,403.359,101.528
								z M403.082,95.988c-0.055-1.108-0.083-1.662-0.139-2.77c0.818,0.069,1.227,0.105,2.044,0.177
								c0.055,1.108,0.083,1.662,0.139,2.769C404.308,96.093,403.899,96.057,403.082,95.988z M402.804,90.448
								c-0.055-1.108-0.083-1.662-0.139-2.77c0.818,0.07,1.227,0.105,2.044,0.178c0.055,1.108,0.083,1.662,0.139,2.77
								C404.031,90.553,403.622,90.518,402.804,90.448z M402.527,84.909c-0.055-1.108-0.083-1.662-0.139-2.77
								c0.818,0.07,1.227,0.105,2.044,0.178c0.055,1.108,0.083,1.662,0.139,2.77C403.754,85.014,403.345,84.978,402.527,84.909z"/>
						</g>
						<g>
							<path style="fill:#CCFFF5;" d="M278.283,150.354c-0.045-0.9-0.067-1.349-0.112-2.249c0.81-0.125,1.214-0.187,2.024-0.309
								c0.045,0.9,0.067,1.349,0.112,2.249C279.498,150.167,279.093,150.229,278.283,150.354z M278.032,145.316
								c-0.056-1.115-0.084-1.673-0.139-2.789c0.81-0.125,1.215-0.186,2.025-0.308c0.056,1.115,0.084,1.673,0.139,2.788
								C279.246,145.129,278.841,145.191,278.032,145.316z M277.753,139.738c-0.056-1.116-0.084-1.674-0.139-2.789
								c0.81-0.125,1.215-0.186,2.025-0.307c0.056,1.116,0.084,1.673,0.139,2.789C278.967,139.552,278.562,139.613,277.753,139.738z
								 M277.474,134.16c-0.056-1.116-0.084-1.674-0.139-2.789c0.81-0.124,1.215-0.186,2.025-0.307
								c0.056,1.116,0.084,1.673,0.139,2.789C278.689,133.974,278.284,134.036,277.474,134.16z M277.195,128.582
								c-0.056-1.115-0.084-1.673-0.139-2.788c0.81-0.124,1.215-0.185,2.025-0.306c0.056,1.115,0.084,1.673,0.139,2.788
								C278.41,128.396,278.005,128.457,277.195,128.582z M276.916,123.004c-0.056-1.115-0.084-1.673-0.139-2.788
								c0.81-0.124,1.215-0.185,2.025-0.306c0.056,1.115,0.084,1.673,0.139,2.788C278.131,122.819,277.726,122.88,276.916,123.004z
								 M276.638,117.426c-0.056-1.116-0.084-1.673-0.139-2.789c0.81-0.124,1.215-0.185,2.025-0.305
								c0.056,1.116,0.084,1.673,0.139,2.789C277.852,117.242,277.447,117.303,276.638,117.426z M276.359,111.849
								c-0.056-1.116-0.084-1.673-0.139-2.789c0.81-0.123,1.215-0.184,2.025-0.305c0.056,1.116,0.084,1.673,0.139,2.789
								C277.574,111.664,277.169,111.725,276.359,111.849z"/>
						</g>
						<path style="fill:#CCFFF5;" d="M206.471,113.634c0.004,1.61-1.815,3.395-4.059,4.007c-2.244,0.612-4.062-0.183-4.066-1.794
							c-0.004-1.612,1.808-3.429,4.052-4.039C204.641,111.197,206.467,112.024,206.471,113.634z"/>
						<path style="fill:#CCFFF5;" d="M256.869,123.029c0.002,1.599-1.853,3.204-4.138,3.605c-2.286,0.401-4.138-0.555-4.14-2.156
							c-0.002-1.601,1.847-3.238,4.133-3.637C255.01,120.442,256.867,121.43,256.869,123.029z"/>
						<path style="fill:#CCFFF5;" d="M307.461,124.973c0,1.587-1.876,3.01-4.189,3.198c-2.313,0.188-4.187-0.932-4.187-2.522
							c0-1.589,1.873-3.044,4.186-3.23C305.584,122.234,307.461,123.386,307.461,124.973z"/>
						<path style="fill:#CCFFF5;" d="M230.38,97.677c0.003,1.604-1.836,3.298-4.103,3.803c-2.267,0.505-4.104-0.371-4.107-1.978
							c-0.003-1.606,1.829-3.332,4.097-3.835C228.534,95.164,230.378,96.072,230.38,97.677z"/>
						<path style="fill:#CCFFF5;" d="M282.572,109.203c0.001,1.593-1.866,3.101-4.168,3.389c-2.302,0.288-4.166-0.755-4.168-2.35
							c-0.001-1.594,1.862-3.135,4.164-3.421C280.702,106.535,282.571,107.61,282.572,109.203z"/>
						<path style="fill:#CCFFF5;" d="M355.032,54.296c0,1.575-1.887,2.805-4.212,2.766c-2.326-0.038-4.21-1.332-4.21-2.909
							c0-1.577,1.885-2.839,4.211-2.799C353.146,51.395,355.032,52.721,355.032,54.296z"/>
						<path style="fill:#CCFFF5;" d="M332.462,113.977c0,1.581-1.883,2.91-4.204,2.988c-2.321,0.078-4.202-1.126-4.202-2.71
							c0-1.583,1.881-2.945,4.202-3.02C330.579,111.159,332.462,112.396,332.462,113.977z"/>
						<path style="fill:#CCFFF5;" d="M408.777,82.744c0,1.563-1.882,2.603-4.205,2.343c-2.323-0.26-4.207-1.724-4.206-3.289
							c0-1.565,1.884-2.638,4.207-2.376C406.895,79.684,408.777,81.18,408.777,82.744z"/>
						<path style="fill:#CCFFF5;" d="M386.638,122.244c0,1.569-1.886,2.702-4.213,2.551c-2.327-0.151-4.212-1.531-4.212-3.102
							c0-1.571,1.887-2.737,4.213-2.584S386.638,120.675,386.638,122.244z"/>
					</g>
				</g>
			</g>
			<g>
				<path style="fill:none;stroke:#222221;stroke-linecap:round;stroke-linejoin:round;stroke-miterlimit:10;" d="M89.1,270.487
					h0.004c0-0.034-0.004-0.068-0.004-0.102V270.487z"/>
				<path style="fill:#8BD6C8;" d="M381.062,181.924c-161.246,0-291.962,39.605-291.962,88.46c0,0.034,0.004,0.068,0.004,0.102
					l13.742-0.121c0.036-42.725,124.583-77.357,278.216-77.357c147.747,0,268.573,32.031,277.648,72.485l13.838-0.121
					C663.97,218.85,536.756,181.924,381.062,181.924z"/>
			</g>
			<path style="fill:#67C1AC;" d="M149.106,187.894v-38.243c-35.222,9.762-67.042,30.151-92.522,56.354v45.058
				c9.702-16.892,24.173-29.285,40.848-39.355C114.107,201.64,130.976,195.02,149.106,187.894z"/>
			<path style="fill:#AEFFF1;" d="M78.159,309.185v-28.963c-9.519-3.548-19.643-7.635-24.992-16.272v28.598
				C60.521,299.523,69.02,304.805,78.159,309.185z"/>
			<path style="fill:#AEFFF1;" d="M53.681,195.673v-18.88c-7.583-2.077-14.096-7.002-17.805-13.934v19.509
				C40.09,189.042,46.114,193.422,53.681,195.673z"/>
			<path style="fill:#AEFFF1;" d="M194.029,141.598V58.1c-39.667,9.61-76.83,28.255-109.381,52.877v81.588
				C115.275,164.51,153.07,148.489,194.029,141.598z"/>
			<path style="fill:#AEFFF1;" d="M208.797,54.237v-10.65c0,0,43.81-18.622,117.012-21.726v14.188
				C325.809,36.049,281.069,32.521,208.797,54.237z"/>
			<path style="fill:#AEFFF1;" d="M619.054,96.35v85.574c-86.904-32.367-208.072-38.131-208.072-38.131V50.681
				C410.982,50.681,529.612,48.464,619.054,96.35z"/>
			<path style="fill:#AEFFF1;" d="M603.395,68.89c-23.027-13.713-47.671-23.573-74.472-23.573v8.912c0,0.296,0,0.591,0,0.887
				c25.167,2.796,51.614,12.921,74.472,23.817V68.89z"/>
			<path style="fill:#67C1AC;" d="M610.506,107.878V78.932c0,0,26.16,4.56,48.773,19.635v30.15
				C659.279,128.717,638.44,111.425,610.506,107.878z"/>
			<path style="fill:#8BD6C8;" d="M588.337,113.199v86.095c0,0,39.905-4.733,96.659,45.037v-90.34
				C684.996,153.991,649.081,121.18,588.337,113.199z"/>
			<path style="fill:#AEFFF1;" d="M712.486,259.638c0,0,6.207-0.586,11.971-7.448v12.647c0,0-4.321,5.186-10.971,7.857
				L712.486,259.638z"/>
			<path style="fill:#AEFFF1;" d="M624.251,328.887v32.166c0,0,29.264-8.868,48.773-28.82v-37.673
				C673.024,294.559,658.836,316.674,624.251,328.887z"/>
			<g>
				<path style="fill:#60A597;" d="M560.297,110.133c-0.028,0.688-0.063,1.403-0.385,2.012c-0.322,0.609-1.018,1.079-1.686,0.909
					c-0.299-0.076-0.56-0.269-0.859-0.342c-1.188-0.292-1.909,1.219-2.367,2.354c-0.333,0.825-0.804,1.638-1.553,2.118
					s-1.83,0.528-2.475-0.084c-0.405-0.384-0.594-0.968-1.039-1.306c-0.877-0.665-2.134-0.021-2.943,0.726
					c-0.809,0.747-1.692,1.673-2.787,1.558c-0.58-0.061-1.105-0.421-1.688-0.433c-1.711-0.036-2.253,2.642-3.913,3.059
					c-0.489,0.123-1.002,0.023-1.503-0.028c-1.69-0.171-3.433,0.24-4.868,1.147c-0.273,0.173-0.542,0.37-0.711,0.646
					c-0.663,1.086,0.559,2.316,0.928,3.534c0.603,1.986-1.149,4.308-0.101,6.099c0.318,0.544,0.847,0.924,1.331,1.328
					c1.388,1.161,2.501,2.648,3.224,4.307c-0.567,0.166-0.772,0.905-0.614,1.474c0.158,0.569,0.561,1.032,0.86,1.541
					c0.983,1.674,0.799,3.805,0.16,5.639c-0.587,1.684-1.531,3.243-2.751,4.544c0.842,0.521,1.93,0.015,2.743-0.549
					c4.354-3.02,7.349-7.928,8.042-13.181c0.246-1.863,0.294-3.945,1.609-5.287c0.419-0.428,0.939-0.742,1.452-1.052
					c1.073-0.647,2.146-1.295,3.219-1.942c0.406-0.245,0.82-0.497,1.128-0.859c0.882-1.039,0.622-2.622,0.095-3.879
					c-0.527-1.257-1.285-2.49-1.259-3.853c0.003-0.163,0.02-0.331,0.102-0.472c0.238-0.408,0.828-0.351,1.3-0.326
					c0.472,0.025,1.102-0.23,1.007-0.692c0.614,0.709,1.807,0.18,2.401-0.546c0.594-0.726,1.077-1.681,1.987-1.908
					c0.812-0.202,1.626,0.273,2.456,0.374c1.71,0.207,3.167-1.151,4.35-2.404c1.425-1.509,2.85-3.018,4.275-4.527
					c1.161-1.229,2.409-2.913,1.697-4.446c-0.295-0.635-0.886-1.095-1.177-1.731c-0.641-1.402,0.368-3.098-0.105-4.564
					c-0.171-0.531-0.533-1.012-0.549-1.569c-0.034-1.14,1.426-1.801,2.528-1.51c1.102,0.292,1.941,1.155,2.868,1.819
					c1.041,0.745,2.245,1.262,3.502,1.502c0.355,0.068,0.741,0.11,1.06-0.059c0.319-0.169,0.503-0.627,0.272-0.905
					c-2.859-3.43-6.043-6.154-10.393-7.164c-4.35-1.01-8.909-1.213-13.073-2.824c-2.779-1.075-5.286-2.742-7.735-4.439
					c-1.504-1.042-3.022-2.115-4.751-2.715c-1.225-0.425-2.52-0.601-3.806-0.767c-4.377-0.564-8.764-1.043-13.16-1.438
					c-0.261-0.023-0.531-0.045-0.777,0.045c-0.666,0.243-0.787,1.221-0.376,1.798c0.411,0.577,1.144,0.823,1.84,0.952
					c0.697,0.129,1.426,0.181,2.053,0.511c1.367,0.718,1.826,2.495,3.056,3.429c0.622,0.472,1.397,0.693,2.077,1.076
					c1.267,0.715,2.178,2.029,2.404,3.465c0.884-0.083,1.3-1.131,1.416-2.011s0.205-1.912,0.955-2.388
					c0.458-0.29,1.144-0.365,1.308-0.882c0.059-0.186,0.029-0.391,0.09-0.575c0.132-0.403,0.613-0.552,1.027-0.643
					c0.875-0.192,1.864-0.365,2.607,0.135c0.743,0.501,0.711,1.957-0.179,2.064c-0.312,0.037-0.617-0.103-0.93-0.122
					c-1.076-0.066-1.719,1.432-1.174,2.362c0.546,0.929,1.777,1.241,2.845,1.093c0.689-0.096,1.355-0.343,2.05-0.377
					c0.897-0.044,1.769,0.271,2.612,0.581c0.748,0.275,1.496,0.55,2.244,0.825c0.234,0.086,0.475,0.176,0.659,0.345
					c0.572,0.526,0.237,1.589-0.467,1.918c-0.704,0.329-1.554,0.092-2.21-0.324c-0.656-0.416-1.192-0.997-1.829-1.442
					c-0.637-0.445-1.446-0.754-2.188-0.522c-0.394,0.123-0.726,0.386-1.07,0.614c-0.871,0.576-1.864,0.95-2.72,1.548
					c-0.856,0.598-1.596,1.516-1.576,2.56s1.121,2.043,2.089,1.652c0.344-0.139,0.619-0.42,0.971-0.536
					c0.76-0.25,1.544,0.359,1.958,1.044c0.414,0.684,0.644,1.493,1.202,2.066c0.961,0.986,2.657,1.032,3.488,2.129
					c1.002,1.323,0.313,3.623,1.689,4.552c0.334,0.226,0.755,0.329,1.031,0.623c0.395,0.42,0.365,1.08,0.237,1.642
					c-0.128,0.562-0.33,1.14-0.195,1.701c0.135,0.56,0.804,1.033,1.29,0.723c0.282-0.18,0.383-0.535,0.511-0.845
					c0.438-1.062,1.459-1.861,2.595-2.031c0.206-0.031,0.427-0.04,0.61,0.06c0.447,0.246,0.376,0.938,0.719,1.316
					c0.273,0.302,0.729,0.326,1.115,0.457C560.085,109.734,560.313,109.726,560.297,110.133z"/>
				<path style="fill:#60A597;" d="M509.088,101.913c-1.506,0.268-2.564,1.582-3.536,2.763c-0.972,1.182-2.195,2.412-3.725,2.404
					c-1.446-0.008-2.625-1.128-3.54-2.248c-0.257-0.314-0.517-0.658-0.558-1.061c-0.042-0.404,0.231-0.867,0.637-0.876
					c0.214-0.005,0.425,0.114,0.635,0.074c0.499-0.095,0.5-0.904,0.96-1.12c0.496-0.233,1.197,0.372,1.575-0.024
					c0.188-0.197,0.138-0.513,0.204-0.778c0.276-1.097,2.418-1.105,2.203-2.305c-0.074-0.416-0.467-0.696-0.889-0.698
					c-0.855-0.004-1.377,0.636-1.912,1.185c-0.423,0.434-0.95,0.856-1.556,0.832c-0.781-0.031-1.525-0.797-2.237-0.475
					c-0.317,0.143-0.53,0.48-0.867,0.566c-0.326,0.084-0.654-0.091-0.977-0.184c-1.276-0.368-2.729,0.848-2.592,2.169
					c0.026,0.254,0.097,0.527-0.025,0.751c-0.142,0.262-0.476,0.334-0.753,0.446c-0.897,0.363-1.373,1.315-1.904,2.123
					c-0.531,0.808-1.397,1.609-2.339,1.389c0.307-1.204,0.425-2.455,0.349-3.695c-1.774-0.314-3.399-2.948-3.152-4.732
					c-0.674-0.302-1.297,0.552-1.42,1.28c-0.123,0.728-0.166,1.62-0.821,1.962c-0.623,0.326-1.468-0.073-2.053,0.316
					c-0.272,0.181-0.42,0.494-0.612,0.759c-0.559,0.772-1.503,1.146-2.396,1.482c-0.668,0.251-1.369,0.508-2.088,0.299
					c-0.331-0.096-0.631-0.31-0.789-0.616c-0.393-0.761,0.217-1.507,0.89-1.871c0.71-0.385,1.551-0.536,2.094-1.189
					c0.217-0.26,0.339-0.6,0.298-0.936c-0.076-0.617-0.57-0.818-1.042-0.918c-0.782-0.167-1.632-0.135-2.323-0.538
					c-0.644-0.376-1.033-1.065-1.334-1.747c-0.459-1.04-0.748-2.355-0.029-3.236c0.91-1.115,3.097-1.096,3.269-2.562
					c0.086-0.735-0.456-1.383-1.176-1.554c-1.182-0.281-2.199,0.435-2.994,1.228c-0.258,0.258-0.556,0.551-0.951,0.427
					c-0.332-0.104-0.504-0.465-0.456-0.809c0.086-0.624,0.611-0.976,1.06-1.35c0.378-0.314,0.749-0.732,0.723-1.223
					c-0.047-0.902-1.296-1.229-1.66-2.056c-0.259-0.586,0.011-1.297,0.474-1.741c0.462-0.444,1.079-0.681,1.677-0.911
					c0.283-0.109,0.573-0.223,0.793-0.431c0.209-0.197,0.338-0.461,0.462-0.719c0.347-0.719,0.702-1.463,0.609-2.288
					c-0.053-0.472-0.288-0.922-0.688-1.179c-1.051-0.676-2.323,0.348-3.133,1.284c-0.621-0.581-0.213-1.993-1.11-2.14
					c-0.561-0.092-1.027,0.363-1.078,0.929c-0.147,1.639-1.852,2.825-3.422,2.561c0.616-0.597,1.284-1.449,0.908-2.219
					c-0.115-0.235-0.314-0.417-0.509-0.592c-0.352-0.317-0.704-0.634-1.056-0.951c-0.655-0.59-1.33-1.207-1.57-2.086
					c-0.125-0.459-0.098-0.96,0.146-1.369c0.514-0.859,1.577-0.841,2.486-0.739c2.084,0.235,4.148,0.641,6.166,1.213
					c0.877,0.249,1.75,0.529,2.653,0.657c1.818,0.257,3.663-0.118,5.499-0.083c2.347,0.045,4.621,0.756,6.897,1.33
					c0.723,0.182,1.46,0.352,2.204,0.312c0.824-0.045,1.61-0.344,2.413-0.533c3.619-0.849,7.382,0.589,10.616,2.422
					c3.377,1.914,6.552,4.314,10.32,5.312c0.33,0.087,0.699-0.04,0.87-0.337c0.24-0.416-0.093-0.768-0.297-1.117
					c-0.172-0.294-0.194-0.776,0.132-0.876c1.168-0.36,2.503-0.204,3.723-0.268c0.322-0.017,0.654-0.033,0.958,0.075
					c0.514,0.182,0.867,0.688,1.389,0.847c0.514,0.157,1.093-0.055,1.598,0.128c0.516,0.187,0.805,0.721,1.047,1.213
					c1.144,2.322,2.307,4.706,2.575,7.282c-0.904-0.412-1.808-0.824-2.711-1.237c-0.433-0.197-0.893-0.419-1.13-0.831
					c-0.169-0.294-0.199-0.644-0.257-0.978c-0.211-1.227-0.843-2.378-1.773-3.207c-0.212-0.189-0.538-0.228-0.753-0.043
					c-0.469,0.406,0.296,1.063-0.056,1.422c-0.439-0.279-0.937-0.466-1.451-0.546c-0.202,0.502-0.711,0.864-1.251,0.891
					c0.156,1.147,2.268,0.828,2.694,1.903c0.214,0.54-0.113,1.24,0.249,1.694c0.155,0.194,0.401,0.288,0.635,0.371
					c1.511,0.537,3.051,0.991,4.612,1.359c1.485,0.35,3.13,0.709,4.034,1.938c0.387,0.525,0.582,1.286,0.203,1.817
					c-0.258,0.36-0.728,0.54-0.933,0.933c-0.358,0.688,0.676,1.55,1.288,1.074c0.991,0.609,1.991,1.588,2.016,2.751
					c0,0.022,0.001,0.044,0.001,0.066c0.001,1.215-1.339,1.846-2.389,1.235c-0.086-0.05-0.181-0.088-0.285-0.112
					c-0.258-0.058-0.531-0.008-0.789-0.068c-0.303-0.07-0.55-0.283-0.783-0.488c-0.361-0.317-0.721-0.634-1.082-0.951
					c-0.143-0.125-0.289-0.255-0.377-0.423c-0.363-0.694,0.375-1.729-0.205-2.255c-0.174-0.158-0.42-0.207-0.617-0.334
					c-0.776-0.499-0.501-1.93-1.474-2.145c-0.257-0.057-0.526,0.031-0.725,0.202c-0.092,0.079-0.184,0.157-0.294,0.203
					c-0.249,0.105-0.54,0.03-0.799,0.106c-0.501,0.146-0.674,0.749-0.821,1.249c-0.147,0.501-0.495,1.081-1.012,1.013
					c-0.029-0.8,0.098-1.606,0.372-2.358c-0.652-0.095-1.094,0.619-1.39,1.208c-0.296,0.589-0.868,1.255-1.479,1.008
					c-0.689-0.278-0.824-1.554-1.557-1.433c-0.275,0.045-0.463,0.297-0.708,0.428c-0.245,0.132-0.667,0.017-0.616-0.257
					c-0.348-0.154-0.336,0.493-0.352,0.873c-0.035,0.816-1.255,0.993-1.983,0.855c-0.231-0.044-0.468-0.067-0.698-0.02
					c-1.445,0.296-1.191,1.439-0.551,1.9c0.386,0.279,0.877,0.362,1.35,0.412c1.489,0.158,3.004,0.063,4.461-0.28
					c-0.278,0.714,0.431,1.473,1.178,1.645c0.746,0.172,1.526-0.017,2.291,0.019c0.772,0.036,1.513,0.299,2.272,0.441
					c1.729,0.324,3.66,0.058,5.114,1.046c0.673,0.457,1.158,1.136,1.623,1.804c1.018,1.462,2.031,2.995,2.368,4.744
					c0.338,1.749-0.161,3.779-1.647,4.761c-0.282,0.187-0.604,0.342-0.788,0.627c-0.162,0.252-0.19,0.566-0.306,0.842
					c-0.342,0.81-1.553,1.073-2.201,0.479c-0.245-0.225-0.401-0.529-0.616-0.782c-0.296-0.347-0.696-0.586-1.089-0.82
					c-0.536-0.318-1.093-0.644-1.712-0.721c-0.619-0.077-1.323,0.161-1.599,0.72c-0.34,0.688-0.139,1.84-0.895,1.972
					c-0.349-0.07-0.471-0.491-0.592-0.825c-0.14-0.384-0.584-0.805-0.907-0.386c-0.167,0.216-0.112,0.522,0.078,0.719
					c0.89,0.923,0.029,1.979-0.744,2.678c-0.622,0.562-1.244,1.123-1.866,1.685c-0.334,0.301-0.684,0.629-0.796,1.064
					c-0.265,1.032,0.919,1.978,0.779,3.035c-0.122,0.916-1.182,1.478-1.33,2.39c-0.062,0.379,0.047,0.764,0.065,1.148
					c0.043,0.944-0.458,1.818-0.945,2.628c-0.596,0.992-1.215,2.006-2.262,2.596c-0.528,0.297-1.145,0.436-1.74,0.324
					c-1.895-0.357-2.322-2.732-3.503-4.197c-0.456-0.566-1.052-1.014-1.458-1.617c-0.472-0.701-0.625-1.752,0.153-2.283
					c0.202-0.138,0.357-0.347,0.395-0.589c0.059-0.377-0.209-0.507-0.445-0.629c-1.277-0.656-2.426-2.041-2.007-3.414
					c0.51-1.672,3.122-2.649,1.802-4.568c-0.145-0.211-0.343-0.379-0.555-0.522c-2.125-1.444-3.404-4.029-3.281-6.592
					c0.011-0.232,0.103-0.461,0.275-0.616c0.852-0.773,1.965,1.05,2.624,0.352c0.23-0.243,0.17-0.644,0.331-0.938
					c0.359-0.656,1.34-0.325,2.086-0.371c0.85-0.053,1.597-0.814,1.634-1.665c0.013-0.292-0.048-0.59,0.024-0.874
					c0.114-0.449,0.522-0.747,0.852-1.073C508.9,103.146,508.978,102.746,509.088,101.913z"/>
				<path style="fill:#60A597;" d="M478.49,125.67c-0.159-0.255-0.438-0.449-0.491-0.744c-0.097-0.538,0.582-0.87,0.808-1.368
					c0.248-0.546-0.115-1.197-0.605-1.544c-0.49-0.346-1.09-0.497-1.617-0.784c-0.692-0.377-1.249-0.995-1.552-1.722
					c-0.179-0.429-0.301-0.933-0.695-1.18c-0.245-0.154-0.548-0.174-0.836-0.189c-0.849-0.046-1.743-0.083-2.502,0.301
					c-0.381,0.193-0.711,0.485-1.114,0.628c-1.251,0.444-2.544-0.689-3.87-0.62c-0.679,0.035-1.297,0.384-1.886,0.724
					c-0.325,0.187-0.663,0.388-0.858,0.708c-0.148,0.243-0.197,0.532-0.243,0.813c-0.145,0.876-0.29,1.752-0.435,2.628
					c-0.058,0.353-0.117,0.712-0.067,1.065c0.219,1.564,2.264,2.146,3.007,3.54c0.339,0.636,0.373,1.385,0.569,2.079
					c0.195,0.694,0.659,1.413,1.374,1.508c0.76,0.101,1.422-0.557,1.736-1.256c0.314-0.699,0.418-1.487,0.798-2.153
					c0.38-0.666,1.2-1.196,1.899-0.883c0.156,0.07,0.326,0.18,0.484,0.115c0.126-0.052,0.186-0.197,0.292-0.283
					c0.229-0.185,0.566-0.048,0.823,0.095c0.772,0.427,2.957,2.155,3.726,1.617c0.297-0.208,0.747-1.085,0.953-1.395
					C478.561,126.811,478.774,126.313,478.49,125.67z"/>
			</g>
			<g>
				<g>
					<path style="fill:#D2FFF6;" d="M649.816,173.124c-0.266-0.531-0.656-1.011-1.169-1.439c-0.514-0.428-1.14-0.801-1.876-1.118
						c-0.353-0.152-0.731-0.29-1.131-0.416v-5.367c0.216,0.091,0.427,0.195,0.63,0.322c0.711,0.446,1.324,1.088,1.838,1.928
						l1.953-1.928c-0.6-1.028-1.418-1.812-2.454-2.352c-0.597-0.311-1.254-0.529-1.966-0.661v-2h-2.493v1.89
						c-0.842,0.08-1.617,0.284-2.326,0.616c-0.934,0.437-1.675,1.032-2.223,1.786c-0.549,0.754-0.823,1.619-0.823,2.596
						c0,0.977,0.201,1.834,0.604,2.57c0.402,0.737,1.011,1.345,1.825,1.825c0.542,0.32,1.186,0.581,1.915,0.794v5.5
						c-0.326-0.108-0.639-0.237-0.925-0.409c-0.771-0.462-1.577-1.294-2.416-2.493l-1.902,2.185
						c0.805,1.165,1.769,2.039,2.891,2.622c0.713,0.37,1.497,0.622,2.352,0.757v2.199h2.493v-2.123
						c0.956-0.083,1.805-0.296,2.545-0.64c0.976-0.454,1.73-1.101,2.262-1.94c0.531-0.839,0.797-1.833,0.797-2.982
						C650.215,174.229,650.082,173.655,649.816,173.124z M640.756,167.894c-0.138-0.3-0.205-0.63-0.205-0.99
						c0-0.497,0.141-0.929,0.424-1.298c0.283-0.368,0.672-0.655,1.169-0.861c0.301-0.125,0.638-0.207,1.002-0.256v5.02
						c-0.219-0.064-0.427-0.131-0.617-0.202c-0.48-0.18-0.861-0.385-1.143-0.617C641.104,168.459,640.893,168.194,640.756,167.894z
						 M646.977,176.8c-0.309,0.36-0.729,0.642-1.26,0.848c-0.342,0.133-0.713,0.218-1.105,0.265v-5.146
						c0.069,0.021,0.14,0.041,0.206,0.062c0.445,0.146,0.835,0.313,1.169,0.501c0.334,0.189,0.608,0.394,0.823,0.617
						c0.214,0.223,0.372,0.472,0.475,0.745c0.103,0.274,0.154,0.566,0.154,0.874C647.439,176.029,647.285,176.44,646.977,176.8z"/>
				</g>
				<g>
					<path style="fill:#D2FFF6;" d="M643.448,188.859c-9.467,0-17.169-7.702-17.169-17.168c0-9.466,7.702-17.168,17.169-17.168
						c9.466,0,17.168,7.702,17.168,17.168C660.616,181.158,652.915,188.859,643.448,188.859z M643.448,155.208
						c-9.089,0-16.484,7.395-16.484,16.483c0,9.089,7.395,16.483,16.484,16.483c9.089,0,16.483-7.394,16.483-16.483
						C659.932,162.602,652.537,155.208,643.448,155.208z"/>
				</g>
				<g>
					<path style="fill:#D2FFF6;" d="M643.448,188.859c-9.467,0-17.169-7.702-17.169-17.168c0-9.466,7.702-17.168,17.169-17.168
						c9.466,0,17.168,7.702,17.168,17.168C660.616,181.158,652.915,188.859,643.448,188.859z M643.448,155.208
						c-9.089,0-16.484,7.395-16.484,16.483c0,9.089,7.395,16.483,16.484,16.483c9.089,0,16.483-7.394,16.483-16.483
						C659.932,162.602,652.537,155.208,643.448,155.208z"/>
				</g>
				<g>
					<path style="fill:#D2FFF6;" d="M643.448,201.035c-16.309,0-29.577-13.268-29.577-29.576c0-16.308,13.268-29.576,29.577-29.576
						c16.308,0,29.576,13.268,29.576,29.576C673.024,187.767,659.756,201.035,643.448,201.035z M643.448,142.568
						c-15.931,0-28.892,12.961-28.892,28.891s12.961,28.891,28.892,28.891c15.93,0,28.891-12.961,28.891-28.891
						S659.379,142.568,643.448,142.568z"/>
				</g>
				<g>
					<g>
						<g>
							<path style="fill:#D2FFF6;" d="M665.698,166.434c-0.745,0-1.436-0.479-1.672-1.227c-2.502-7.947-9.448-13.793-17.695-14.894
								c-0.96-0.128-1.635-1.01-1.506-1.971c0.127-0.96,1.012-1.634,1.97-1.506c9.59,1.28,17.667,8.077,20.576,17.317
								c0.291,0.924-0.223,1.909-1.146,2.2C666.05,166.408,665.873,166.434,665.698,166.434z"/>
						</g>
					</g>
					<g>
						<g>
							<path style="fill:#D2FFF6;" d="M620.744,168.089c-0.133,0-0.267-0.015-0.402-0.047c-0.943-0.221-1.528-1.165-1.306-2.108
								c0.921-3.919,2.808-7.606,5.459-10.663c3.774-4.353,8.961-7.294,14.606-8.281c0.957-0.169,1.863,0.472,2.03,1.425
								c0.166,0.954-0.471,1.863-1.426,2.03c-4.853,0.848-9.314,3.378-12.56,7.123c-2.28,2.629-3.903,5.799-4.695,9.168
								C622.26,167.544,621.54,168.089,620.744,168.089z"/>
						</g>
					</g>
					<g>
						<g>
							<path style="fill:#D2FFF6;" d="M643.448,196.768c-11.861,0-22.193-8.422-24.567-20.025c-0.194-0.949,0.418-1.875,1.367-2.07
								c0.947-0.195,1.875,0.418,2.07,1.367c2.041,9.978,10.928,17.22,21.131,17.22c4.621,0,9.027-1.44,12.741-4.163
								c0.782-0.573,1.879-0.404,2.451,0.377c0.573,0.781,0.404,1.878-0.377,2.451C653.943,195.094,648.82,196.768,643.448,196.768z
								"/>
						</g>
					</g>
					<g>
						<g>
							<path style="fill:#D2FFF6;" d="M661.713,187.949c-0.382,0-0.767-0.124-1.09-0.381c-0.758-0.603-0.884-1.706-0.281-2.464
								c2.318-2.915,3.846-6.394,4.418-10.06c0.149-0.957,1.048-1.614,2.002-1.463c0.957,0.149,1.612,1.046,1.462,2.003
								c-0.665,4.266-2.441,8.312-5.137,11.703C662.74,187.722,662.229,187.949,661.713,187.949z"/>
						</g>
					</g>
				</g>
			</g>
			<g>
				<g>
					<g>
						<path style="fill:#60A597;" d="M143.976,114.497c-1.259-2.113-3.853-3.096-6.198-2.352c-2.169,0.688-3.562,2.596-3.727,4.687
							c-0.53-0.569-1.194-1.034-1.975-1.336c-2.482-0.961-5.35,0.087-6.625,2.423c-1.458,2.672-0.401,5.998,2.297,7.351
							l10.877,5.451c0.196,0.098,0.434,0.015,0.525-0.184l5.094-11.048C144.939,117.971,144.936,116.109,143.976,114.497z"/>
					</g>
				</g>
				<g>
					<path style="fill:#60A597;" d="M141.332,137.602c-9.198,3.224-19.304-1.637-22.528-10.835
						c-3.224-9.198,1.637-19.304,10.835-22.527c9.198-3.224,19.304,1.636,22.527,10.835
						C155.39,124.272,150.53,134.378,141.332,137.602z M129.907,105.004c-8.776,3.076-13.414,12.719-10.338,21.495
						c3.076,8.777,12.719,13.414,21.495,10.338c8.776-3.076,13.414-12.719,10.338-21.495
						C148.326,106.566,138.683,101.928,129.907,105.004z"/>
				</g>
				<g>
					<path style="fill:#60A597;" d="M141.332,137.602c-9.198,3.224-19.304-1.637-22.528-10.835
						c-3.224-9.198,1.637-19.304,10.835-22.527c9.198-3.224,19.304,1.636,22.527,10.835
						C155.39,124.272,150.53,134.378,141.332,137.602z M129.907,105.004c-8.776,3.076-13.414,12.719-10.338,21.495
						c3.076,8.777,12.719,13.414,21.495,10.338c8.776-3.076,13.414-12.719,10.338-21.495
						C148.326,106.566,138.683,101.928,129.907,105.004z"/>
				</g>
				<g>
					<path style="fill:#60A597;" d="M145.545,149.621c-15.825,5.546-33.213-2.816-38.759-18.641
						c-5.546-15.825,2.816-33.213,18.641-38.759c15.825-5.547,33.213,2.816,38.759,18.642
						C169.732,126.687,161.37,144.074,145.545,149.621z M125.695,92.985c-15.404,5.399-23.544,22.323-18.145,37.727
						c5.399,15.404,22.323,23.544,37.727,18.145c15.404-5.399,23.543-22.323,18.144-37.727
						C158.022,95.726,141.098,87.586,125.695,92.985z"/>
				</g>
				<g style="opacity:0.61;">
					<g>
						<g>
							<path style="fill:#60A597;" d="M155.254,108.273c-0.722,0.253-1.554,0.024-2.036-0.621
								c-5.121-6.848-13.835-10.153-22.197-8.42c-0.973,0.202-1.926-0.424-2.128-1.398c-0.202-0.973,0.426-1.927,1.397-2.128
								c9.725-2.016,19.856,1.826,25.811,9.789c0.595,0.796,0.432,1.924-0.363,2.52
								C155.586,108.129,155.423,108.214,155.254,108.273z"/>
						</g>
					</g>
					<g>
						<g>
							<path style="fill:#60A597;" d="M112.27,125.14c-0.129,0.045-0.264,0.076-0.405,0.091c-0.989,0.106-1.875-0.61-1.981-1.599
								c-0.439-4.109,0.137-8.321,1.668-12.182c2.178-5.498,6.204-10.108,11.337-12.98c0.869-0.489,1.964-0.175,2.45,0.691
								c0.485,0.868,0.176,1.964-0.692,2.45c-4.413,2.469-7.875,6.434-9.749,11.164c-1.316,3.321-1.812,6.943-1.435,10.474
								C113.553,124.097,113.041,124.869,112.27,125.14z"/>
						</g>
					</g>
					<g>
						<g>
							<path style="fill:#60A597;" d="M143.999,145.212c-11.49,4.027-24.358-0.623-30.596-11.057
								c-0.51-0.853-0.232-1.958,0.621-2.469c0.851-0.511,1.958-0.232,2.469,0.621c5.365,8.973,16.432,12.971,26.316,9.507
								c4.477-1.569,8.256-4.459,10.928-8.358c0.563-0.82,1.683-1.029,2.502-0.467c0.82,0.562,1.029,1.682,0.467,2.503
								C153.597,140.027,149.204,143.388,143.999,145.212z"/>
						</g>
					</g>
					<g>
						<g>
							<path style="fill:#60A597;" d="M158.698,130.468c-0.37,0.13-0.785,0.14-1.185,0.001c-0.939-0.326-1.436-1.352-1.109-2.291
								c1.256-3.611,1.554-7.499,0.864-11.245c-0.181-0.977,0.467-1.92,1.443-2.097c0.978-0.18,1.917,0.466,2.097,1.444
								c0.804,4.358,0.457,8.881-1.003,13.08C159.616,129.9,159.198,130.293,158.698,130.468z"/>
						</g>
					</g>
				</g>
			</g>
		</g>
	</g>
	<g>
		<g>
			<g>
				<polygon style="fill:#AEFFF1;" points="712.237,452.105 717.82,451.43 712.237,450.755 711.545,450.063 710.87,444.48 
					710.195,450.063 709.503,450.755 703.92,451.43 709.503,452.105 710.195,452.797 710.87,458.38 711.545,452.797 				"/>
			</g>
		</g>
		<g>
			<g>
				<polygon style="fill:#AEFFF1;" points="705.287,41.828 710.87,41.152 705.287,40.477 704.596,39.785 703.92,34.203 
					703.245,39.785 702.553,40.477 696.971,41.152 702.553,41.828 703.245,42.519 703.92,48.102 704.596,42.519 				"/>
			</g>
		</g>
		<g>
			<g>
				<polygon style="fill:#AEFFF1;" points="384.934,21.024 390.516,20.349 384.934,19.674 384.242,18.982 383.566,13.399 
					382.891,18.982 382.199,19.674 376.617,20.349 382.199,21.024 382.891,21.716 383.566,27.299 384.242,21.716 				"/>
			</g>
		</g>
		<g>
			<g>
				<polygon style="fill:#AEFFF1;" points="691.462,370.909 697.044,370.233 691.462,369.558 690.77,368.866 690.095,363.284 
					689.419,368.866 688.728,369.558 683.145,370.233 688.727,370.909 689.419,371.6 690.095,377.183 690.77,371.6 				"/>
			</g>
		</g>
		<g>
			<g>
				<polygon style="fill:#AEFFF1;" points="731.62,166.93 737.203,166.254 731.62,165.579 730.928,164.887 730.253,159.305 
					729.578,164.887 728.886,165.579 723.303,166.254 728.886,166.93 729.578,167.621 730.253,173.204 730.928,167.621 				"/>
			</g>
		</g>
		<g>
			<g>
				<polygon style="fill:#AEFFF1;" points="157.826,407.877 163.409,407.202 157.826,406.527 157.134,405.835 156.459,400.252 
					155.784,405.835 155.092,406.527 149.509,407.202 155.092,407.877 155.784,408.569 156.459,414.152 157.134,408.569 				"/>
			</g>
		</g>
		<g>
			<g>
				<polygon style="fill:#AEFFF1;" points="111.767,445.156 117.349,444.48 111.767,443.805 111.075,443.113 110.4,437.531 
					109.724,443.113 109.033,443.805 103.45,444.48 109.033,445.156 109.724,445.847 110.4,451.43 111.075,445.847 				"/>
			</g>
		</g>
		<g>
			<g>
				<polygon style="fill:#AEFFF1;" points="42.686,327.34 48.268,326.665 42.686,325.99 41.994,325.298 41.319,319.715 
					40.643,325.298 39.951,325.99 34.369,326.665 39.951,327.34 40.643,328.032 41.319,333.615 41.994,328.032 				"/>
			</g>
		</g>
		<g>
			<g>
				<polygon style="fill:#AEFFF1;" points="103.408,40.238 108.991,39.562 103.408,38.887 102.716,38.195 102.041,32.613 
					101.366,38.195 100.674,38.887 95.091,39.562 100.674,40.238 101.366,40.929 102.041,46.512 102.716,40.929 				"/>
			</g>
		</g>
		<path style="fill:#AEFFF1;" d="M692.053,411.119c0,1.082-0.877,1.958-1.958,1.958s-1.958-0.877-1.958-1.958
			c0-1.082,0.877-1.958,1.958-1.958S692.053,410.037,692.053,411.119z"/>
		<path style="fill:#AEFFF1;" d="M722.572,113.188c0,1.082-0.877,1.958-1.958,1.958s-1.958-0.877-1.958-1.958
			c0-1.082,0.877-1.958,1.958-1.958S722.572,112.107,722.572,113.188z"/>
		<path style="fill:#AEFFF1;" d="M724.531,68.718c0,1.082-0.877,1.959-1.958,1.959c-1.082,0-1.958-0.877-1.958-1.959
			c0-1.082,0.877-1.958,1.958-1.958C723.654,66.76,724.531,67.637,724.531,68.718z"/>
		<path style="fill:#AEFFF1;" d="M648.71,27.553c0,1.082-0.877,1.958-1.958,1.958c-1.082,0-1.958-0.877-1.958-1.958
			c0-1.082,0.877-1.958,1.958-1.958C647.834,25.594,648.71,26.471,648.71,27.553z"/>
		<path style="fill:#AEFFF1;" d="M230.775,12.515c0,1.082-0.877,1.958-1.958,1.958s-1.958-0.877-1.958-1.958
			s0.877-1.958,1.958-1.958S230.775,11.434,230.775,12.515z"/>
		<path style="fill:#AEFFF1;" d="M665.217,464.964c0,1.082-0.877,1.958-1.958,1.958s-1.958-0.877-1.958-1.958
			s0.877-1.958,1.958-1.958S665.217,463.882,665.217,464.964z"/>
		<path style="fill:#AEFFF1;" d="M24.036,425.463c0,1.082-0.877,1.958-1.959,1.958c-1.082,0-1.958-0.877-1.958-1.958
			s0.877-1.958,1.958-1.958C23.159,423.504,24.036,424.381,24.036,425.463z"/>
		<path style="fill:#AEFFF1;" d="M35.706,27.553c0,1.082-0.877,1.958-1.958,1.958c-1.082,0-1.958-0.877-1.958-1.958
			c0-1.082,0.877-1.958,1.958-1.958C34.829,25.594,35.706,26.471,35.706,27.553z"/>
		<path style="fill:#AEFFF1;" d="M24.036,161.68c0,1.082-0.877,1.959-1.959,1.959c-1.082,0-1.958-0.877-1.958-1.959
			c0-1.082,0.877-1.958,1.958-1.958C23.159,159.722,24.036,160.599,24.036,161.68z"/>
		<circle style="fill:#AEFFF1;" cx="51.686" cy="74.267" r="1.958"/>
		<path style="fill:#AEFFF1;" d="M657.323,315.671c0,1.082-0.877,1.958-1.958,1.958c-1.082,0-1.959-0.877-1.959-1.958
			s0.877-1.958,1.959-1.958C656.447,313.712,657.323,314.589,657.323,315.671z"/>
		<path style="fill:#AEFFF1;" d="M715.819,314.123c0,1.082-0.877,1.958-1.958,1.958s-1.958-0.877-1.958-1.958
			c0-1.082,0.877-1.958,1.958-1.958S715.819,313.042,715.819,314.123z"/>
		<path style="fill:#AEFFF1;" d="M722.572,368.031c0,1.082-0.877,1.958-1.958,1.958s-1.958-0.877-1.958-1.958
			s0.877-1.958,1.958-1.958S722.572,366.949,722.572,368.031z"/>
		<path style="fill:#AEFFF1;" d="M690.095,311.513c0,1.082-0.877,1.959-1.958,1.959s-1.958-0.877-1.958-1.959
			c0-1.082,0.877-1.958,1.958-1.958S690.095,310.431,690.095,311.513z"/>
		<path style="fill:#AEFFF1;" d="M155.73,30.974c0,1.082-0.877,1.958-1.958,1.958s-1.958-0.877-1.958-1.958
			c0-1.082,0.877-1.958,1.958-1.958S155.73,29.892,155.73,30.974z"/>
		<path style="fill:#AEFFF1;" d="M28.756,368.031c0,1.082-0.877,1.958-1.958,1.958c-1.082,0-1.958-0.877-1.958-1.958
			s0.877-1.958,1.958-1.958C27.879,366.072,28.756,366.949,28.756,368.031z"/>
		<path style="fill:#AEFFF1;" d="M70.777,409.16c0,1.082-0.877,1.958-1.958,1.958c-1.082,0-1.958-0.877-1.958-1.958
			s0.877-1.958,1.958-1.958C69.9,407.202,70.777,408.079,70.777,409.16z"/>
		<path style="fill:#AEFFF1;" d="M97.05,371.094c0,1.082-0.877,1.958-1.958,1.958c-1.082,0-1.958-0.877-1.958-1.958
			c0-1.082,0.877-1.958,1.958-1.958C96.173,369.135,97.05,370.012,97.05,371.094z"/>
		<path style="fill:#AEFFF1;" d="M58.61,460.338c0,1.082-0.877,1.958-1.958,1.958s-1.958-0.877-1.958-1.958
			c0-1.082,0.877-1.958,1.958-1.958S58.61,459.257,58.61,460.338z"/>
		<path style="fill:#AEFFF1;" d="M28.756,243.444c0,1.082-0.877,1.958-1.958,1.958c-1.082,0-1.958-0.877-1.958-1.958
			c0-1.082,0.877-1.958,1.958-1.958C27.879,241.486,28.756,242.363,28.756,243.444z"/>
		<path style="fill:#AEFFF1;" d="M167.858,458.38c0,1.082-0.877,1.958-1.958,1.958c-1.082,0-1.958-0.877-1.958-1.958
			s0.877-1.958,1.958-1.958C166.981,456.421,167.858,457.298,167.858,458.38z"/>
		<path style="fill:#AEFFF1;" d="M23.411,76.496c0,1.082-0.877,1.958-1.958,1.958c-1.082,0-1.958-0.877-1.958-1.958
			c0-1.082,0.877-1.958,1.958-1.958C22.535,74.538,23.411,75.415,23.411,76.496z"/>
		<path style="fill:#AEFFF1;" d="M605.353,14.474c0,1.082-0.877,1.958-1.958,1.958c-1.082,0-1.958-0.877-1.958-1.958
			c0-1.082,0.877-1.958,1.958-1.958C604.476,12.515,605.353,13.392,605.353,14.474z"/>
		<path style="fill:#AEFFF1;" d="M465.522,18.391c0,1.082-0.877,1.958-1.958,1.958s-1.958-0.877-1.958-1.958
			s0.877-1.958,1.958-1.958S465.522,17.309,465.522,18.391z"/>
		<path style="fill:#AEFFF1;" d="M551.193,16.432c0,1.082-0.877,1.958-1.958,1.958c-1.082,0-1.958-0.877-1.958-1.958
			s0.877-1.958,1.958-1.958C550.316,14.474,551.193,15.351,551.193,16.432z"/>
		<path style="fill:#AEFFF1;" d="M730.253,214.129c0,1.082-0.877,1.958-1.958,1.958c-1.082,0-1.958-0.877-1.958-1.958
			s0.877-1.958,1.958-1.958C729.376,212.17,730.253,213.047,730.253,214.129z"/>
	</g>
</g>
</svg>
